<svg xmlns="http://www.w3.org/2000/svg" viewBox="0 0 473.37 473.37"><defs><style>.cls-1{fill:#1c0c07;}.cls-2{fill:#f76e58;}.cls-3{fill:#061117;}.cls-4{fill:#56b9da;}.cls-5{fill:none;stroke:#fff;stroke-miterlimit:10;stroke-width:5px;}</style></defs><g id="Layer_2" data-name="Layer 2"><rect x="0.07" width="473.37" height="473.37"/></g><g id="Layer_1" data-name="Layer 1"><path class="cls-1" d="M237.65,445.54a55.74,55.74,0,1,1,55.74-55.74A55.8,55.8,0,0,1,237.65,445.54Z"/><path class="cls-2" d="M237.65,336.06a53.74,53.74,0,1,1-53.74,53.74,53.74,53.74,0,0,1,53.74-53.74m0-4a57.74,57.74,0,1,0,57.74,57.74,57.8,57.8,0,0,0-57.74-57.74Z"/><path class="cls-1" d="M389.06,444.65a55.74,55.74,0,1,1,55.74-55.74A55.81,55.81,0,0,1,389.06,444.65Z"/><path class="cls-2" d="M389.06,335.17a53.74,53.74,0,1,1-53.75,53.74,53.74,53.74,0,0,1,53.75-53.74m0-4a57.74,57.74,0,1,0,57.74,57.74,57.81,57.81,0,0,0-57.74-57.74Z"/><path class="cls-1" d="M84.46,444.65a55.74,55.74,0,1,1,55.74-55.74A55.81,55.81,0,0,1,84.46,444.65Z"/><path class="cls-2" d="M84.46,335.17a53.74,53.74,0,1,1-53.74,53.74,53.74,53.74,0,0,1,53.74-53.74m0-4a57.74,57.74,0,1,0,57.74,57.74,57.8,57.8,0,0,0-57.74-57.74Z"/><circle class="cls-3" cx="238.54" cy="84.76" r="55.74" transform="translate(-14.28 97.74) rotate(-22.5)"/><path class="cls-4" d="M238.54,31A53.74,53.74,0,1,1,184.8,84.76,53.74,53.74,0,0,1,238.54,31m0-4a57.74,57.74,0,1,0,57.74,57.74A57.8,57.8,0,0,0,238.54,27Z"/><path class="cls-3" d="M389.94,139.61a55.74,55.74,0,1,1,55.75-55.74A55.8,55.8,0,0,1,389.94,139.61Z"/><path class="cls-4" d="M389.94,30.13A53.74,53.74,0,1,1,336.2,83.87a53.75,53.75,0,0,1,53.74-53.74m0-4a57.74,57.74,0,1,0,57.75,57.74,57.81,57.81,0,0,0-57.75-57.74Z"/><circle class="cls-3" cx="85.35" cy="83.87" r="55.74"/><path class="cls-4" d="M85.35,30.13A53.74,53.74,0,1,1,31.61,83.87,53.74,53.74,0,0,1,85.35,30.13m0-4a57.74,57.74,0,1,0,57.74,57.74A57.8,57.8,0,0,0,85.35,26.13Z"/><line class="cls-5" x1="8.17" y1="8.17" x2="8.17" y2="465.2"/><line class="cls-5" x1="160.69" y1="8.17" x2="160.69" y2="465.2"/><line class="cls-5" x1="312.98" y1="8.67" x2="312.98" y2="465.7"/><line class="cls-5" x1="465.35" y1="8.67" x2="465.35" y2="465.7"/><line class="cls-5" x1="465.35" y1="8.67" x2="8.17" y2="8.17"/><line class="cls-5" x1="465.35" y1="160.96" x2="8.17" y2="160.46"/><line class="cls-5" x1="465.02" y1="313.41" x2="7.83" y2="312.91"/><line class="cls-5" x1="465.02" y1="465.7" x2="7.83" y2="465.2"/></g></svg>