<svg id="Layer_1" data-name="Layer 1" xmlns="http://www.w3.org/2000/svg" viewBox="0 0 24 24"><defs><style>.cls-1{fill:#ea4335;}</style></defs><path class="cls-1" d="M23.55,10H12.26v4.51h6.46a5.56,5.56,0,0,1-2.39,3.58,7.26,7.26,0,0,1-4.07,1.16,7.15,7.15,0,0,1-6.73-5,7.09,7.09,0,0,1,0-4.58,7.15,7.15,0,0,1,6.73-5,6.49,6.49,0,0,1,4.59,1.8l3.43-3.42a11.49,11.49,0,0,0-8-3.13A12,12,0,0,0,1.54,6.62a11.95,11.95,0,0,0,0,10.76A12,12,0,0,0,12.26,24a11.41,11.41,0,0,0,7.92-2.91,11.7,11.7,0,0,0,3.56-8.82A13.9,13.9,0,0,0,23.55,10Z"/></svg>