<svg id="Layer_1" data-name="Layer 1" xmlns="http://www.w3.org/2000/svg" viewBox="0 0 1000 1000"><defs><style>.cls-1{fill:#fff;stroke:#1d1d1b;stroke-miterlimit:10;stroke-width:25px;}</style></defs><rect class="cls-1" x="190.56" y="828.82" width="618.89" height="152.73" rx="39.66"/><path class="cls-1" d="M352.17,771.93c-22.94,27.89-58.07,53.1-110.92,56.89H767.37c-52.85-3.79-88-29-110.92-56.89-26.26-31.92-40-72.31-40-113.65v-315a182.94,182.94,0,0,0,66.84-141.55C683.28,100.5,601.22,18.44,500,18.44S316.72,100.5,316.72,201.72a183,183,0,0,0,75.47,148.22V658.28C392.19,699.62,378.43,740,352.17,771.93Z"/><rect class="cls-1" x="302.83" y="313.82" width="402.97" height="84.3" rx="31.29"/></svg>